<svg xmlns="http://www.w3.org/2000/svg" width="142" height="82.5" viewBox="0 0 142 82.5"><defs><style>.a{fill:#1f2932;font-size:23px;font-family:CircularStd-Black, Circular Std Black;font-weight:800;letter-spacing:0.2em;}.b{font-family:CircularStd-Book, Circular Std Book;font-weight:400;}.c{font-family:CircularStd-Bold, Circular Std Bold;font-weight:700;}.d{fill:none;stroke:#1f2932;}</style></defs><g transform="translate(-150 -21.5)"><text class="a" transform="translate(150 100)"><tspan x="0" y="0">HYPE</tspan><tspan class="b" y="0">BAY</tspan><tspan class="c" y="0">.</tspan></text><path class="d" d="M280.139,321.51a11.428,11.428,0,0,0,7.488-10.945c0-7.848-5.832-13.681-15.913-13.681H252.172V316.9H231.794V296.884H220.417v51.053h11.377V327.631h20.378v20.306h21.054c9.649,0,15.985-6.121,15.985-14.474A11.95,11.95,0,0,0,280.139,321.51Zm-16.418-15.193h6.049c4.464,0,6.7,2.16,6.7,5.473,0,3.456-2.592,5.544-6.552,5.544h-6.193Zm7.129,32.331h-7.129V326.7h7.129c4.464,0,7.057,2.448,7.057,5.976C277.907,336.344,275.242,338.648,270.85,338.648Z" transform="translate(-68.417 -274.884)"/></g></svg>